<svg width="43" height="59" viewBox="0 0 43 59" fill="none" xmlns="http://www.w3.org/2000/svg">
<path d="M2.18094 23.6139C2.91199 24.0875 3.83752 24.3498 4.795 24.3586L6.17391 24.1221L7.12178 24.0568C7.15827 24.0187 11.7051 23.0692 12.3659 22.9642C13.0723 22.854 13.6806 22.8121 20.8251 22.4212C34.311 21.6812 35.3375 21.6181 38.4559 21.3203C40.5817 21.1181 42.2957 20.8457 42.2887 20.7091C42.2845 20.5103 39.9178 20.295 36.1808 20.1458C34.2897 20.0779 31.9806 20.0395 20.0879 19.8881C16.6888 19.8437 13.7 19.8031 13.4429 19.7919C12.6966 19.7745 11.9568 19.6741 9.1664 19.2148C6.19729 18.7304 6.91036 18.6212 6.91036 18.6212L4.68671 18.6296L4.30632 18.6708C3.12777 18.7909 1.91828 19.409 1.44045 20.136C1.15957 20.5729 1.02427 21.0358 1.03527 21.5577C1.0536 22.4276 1.45834 23.1484 2.18094 23.6139ZM2.78555 21.8233C2.74909 21.6666 2.74368 21.4098 2.7735 21.2517C2.81762 20.9855 2.85782 20.9267 3.21466 20.5545C3.58367 20.1696 3.62862 20.1396 4.06456 19.9813C5.94 19.3035 7.99752 20.3832 7.58441 21.8217C7.49568 22.1343 7.44737 22.2017 7.15489 22.4813C6.97612 22.6509 6.78854 22.7957 6.73055 22.797C6.63113 22.7991 5.94677 23.2387 5.23982 23.2536C5.17808 23.4704 5.23982 23.2536 4.8578 23.2094L4.66233 23.1762C3.98443 23.062 3.59916 22.8712 3.1799 22.4449C2.89617 22.1567 2.84049 22.0708 2.78555 21.8233Z" fill="#706B4D"/>
<path d="M40.2097 27.3648C39.4944 26.8678 38.5778 26.5756 37.6211 26.5357L36.2353 26.7273L35.2858 26.7618C35.2481 26.7987 30.6728 27.6001 30.0089 27.6837C29.2994 27.7709 28.6901 27.7929 21.5366 27.9517C8.03375 28.2537 7.00583 28.2834 3.87941 28.4798C1.74815 28.613 0.026141 28.8295 0.028726 28.9663C0.02646 29.1651 2.38491 29.4572 6.1151 29.7276C8.00305 29.8568 10.3097 29.9701 22.1912 30.5074C25.5871 30.6622 28.5729 30.7998 28.8296 30.8193C29.575 30.8609 30.3111 30.9853 33.0851 31.5349C36.0369 32.1154 35.3207 32.2014 35.3207 32.2014L37.5434 32.2652L37.925 32.2364C39.1068 32.1546 40.3357 31.576 40.8369 30.8649C41.1318 30.4374 41.282 29.9792 41.288 29.4572C41.2979 28.5871 40.9168 27.8535 40.2097 27.3648ZM39.5473 29.1348C39.5786 29.2926 39.5757 29.5495 39.5407 29.7066C39.488 29.9711 39.4459 30.0287 39.0772 30.3891C38.6959 30.7618 38.65 30.7903 38.2091 30.9344C36.3127 31.5509 34.2913 30.405 34.7509 28.9807C34.8497 28.6711 34.9002 28.6054 35.2016 28.3354C35.3857 28.1717 35.5779 28.033 35.6359 28.0337C35.7354 28.0348 36.4336 27.6176 37.1407 27.6257C37.2094 27.411 37.1407 27.6257 37.5211 27.6823L37.7154 27.7218C38.3892 27.8579 38.7681 28.0611 39.1733 28.5008C39.4475 28.7981 39.5004 28.8857 39.5473 29.1348Z" fill="#706B4D"/>
<path d="M2.18094 39.6139C2.91199 40.0875 3.83752 40.3498 4.795 40.3586L6.17391 40.1221L7.12178 40.0568C7.15827 40.0187 11.7051 39.0692 12.3659 38.9642C13.0723 38.854 13.6806 38.8121 20.8251 38.4212C34.311 37.6812 35.3375 37.6181 38.4559 37.3203C40.5817 37.1181 42.2957 36.8457 42.2887 36.7091C42.2845 36.5103 39.9178 36.295 36.1808 36.1458C34.2897 36.0779 31.9806 36.0395 20.0879 35.8881C16.6888 35.8437 13.7 35.8031 13.4429 35.7919C12.6966 35.7745 11.9568 35.6741 9.1664 35.2148C6.19729 34.7304 6.91036 34.6212 6.91036 34.6212L4.68671 34.6296L4.30632 34.6708C3.12777 34.7909 1.91828 35.409 1.44045 36.136C1.15957 36.5729 1.02427 37.0358 1.03527 37.5577C1.0536 38.4276 1.45834 39.1484 2.18094 39.6139ZM2.78555 37.8233C2.74909 37.6666 2.74368 37.4098 2.7735 37.2517C2.81762 36.9855 2.85782 36.9267 3.21466 36.5545C3.58367 36.1696 3.62862 36.1396 4.06456 35.9813C5.94 35.3035 7.99752 36.3832 7.58441 37.8217C7.49568 38.1343 7.44737 38.2017 7.15489 38.4813C6.97612 38.6509 6.78854 38.7957 6.73055 38.797C6.63113 38.7991 5.94677 39.2387 5.23982 39.2536C5.17808 39.4704 5.23982 39.2536 4.8578 39.2094L4.66233 39.1762C3.98443 39.062 3.59916 38.8712 3.1799 38.4449C2.89617 38.1567 2.84049 38.0708 2.78555 37.8233Z" fill="#706B4D"/>
</svg>
