<svg width="34" height="33" viewBox="0 0 34 33" fill="none" xmlns="http://www.w3.org/2000/svg">
<g filter="url(#filter0_d_200_96)">
<path d="M4.44896 0.0421162C4.00833 0.145241 3.59114 0.496803 3.38958 0.928053C3.29583 1.1343 3.26771 1.27962 3.25364 1.64055L3.23489 2.09524L2.93958 2.26399C2.33021 2.62024 1.85677 3.14993 1.51927 3.84837C0.942707 5.02962 0.830207 6.01868 0.947395 8.89212C1.06458 11.9718 0.834895 13.7437 0.20677 14.5124C0.00520704 14.7609 -0.0369805 14.9062 0.0286445 15.1124C0.0755195 15.2577 0.33802 15.389 0.50677 15.3468C0.834895 15.2624 1.29896 14.5359 1.50989 13.7718C1.73958 12.9234 1.80521 12.2249 1.80989 10.4437C1.80989 9.52962 1.80521 8.16555 1.79114 7.42024C1.77239 6.24837 1.77708 5.99993 1.85208 5.61555C2.03489 4.64524 2.36302 3.93274 2.87396 3.40305C3.23489 3.03274 3.33802 2.99993 3.33802 3.25774C3.33802 3.52962 4.36927 22.9031 4.39739 23.189C4.43021 23.5124 4.56614 23.6624 4.83333 23.6624C4.98333 23.6624 5.03958 23.6343 5.13802 23.5171C5.20364 23.4374 5.25989 23.3577 5.25989 23.3437C5.26458 22.9406 6.38958 2.35774 6.40833 2.33899C6.42239 2.32493 6.72708 2.31555 7.07864 2.32024C8.11458 2.32961 8.77083 2.56399 9.30521 3.10774C9.91458 3.73586 10.2052 4.56087 10.3271 6.04212C10.3974 6.87649 10.3458 7.62649 10.0833 9.36555C9.91927 10.4765 9.89114 10.7718 9.88646 11.4984C9.87708 12.4593 9.93802 12.8484 10.2099 13.5609C10.4536 14.189 10.6974 14.5734 11.7755 16.0452C12.0849 16.4671 12.8349 17.5734 13.0365 17.9062C13.1396 18.0749 13.1349 18.1781 13.0318 18.1781C12.924 18.1781 12.2115 18.5671 11.9115 18.7921C11.7333 18.9234 11.4896 19.139 11.363 19.2796C9.92396 20.8546 10.0646 22.9406 11.6583 23.7093C12.6521 24.1874 13.7443 24.0327 14.4755 23.3109C14.9818 22.814 15.1646 22.2937 15.1646 21.3421C15.1693 20.5452 15.0193 19.9734 14.5083 18.7921C14.4615 18.689 15.3755 18.7546 16.088 18.9046C16.7911 19.0546 17.8036 19.1109 18.3333 19.0265C19.5849 18.8296 20.574 18.1077 21.1411 16.9827C21.4693 16.3265 21.4833 15.9609 21.188 15.8062C21.0286 15.7218 20.7708 15.7499 20.6865 15.8531C20.6583 15.8859 20.5646 16.0968 20.4755 16.3124C20.1755 17.0812 19.7349 17.5734 19.0646 17.8968C18.5302 18.1499 18.2724 18.2015 17.5411 18.1968C17.0208 18.1921 16.7724 18.164 16.1583 18.0374C15.5255 17.9109 15.3005 17.8827 14.7193 17.8781L14.0302 17.8734L13.6599 17.2827C13.2427 16.6124 12.9427 16.1812 12.0615 14.9671C11.3724 14.0202 11.0911 13.5187 10.9036 12.8999C10.7818 12.5015 10.7724 12.4359 10.7724 11.5218C10.7724 10.6968 10.7911 10.4437 10.899 9.74055C11.1802 7.97805 11.1849 7.93587 11.1849 6.71712C11.1849 5.69055 11.1755 5.47493 11.0818 4.98274C10.7208 3.09837 9.89114 2.06243 8.37708 1.60305C7.9974 1.49055 7.87552 1.47649 7.19114 1.4718L6.42708 1.46712L6.40365 1.34993C6.34739 1.09212 6.27239 0.895241 6.17396 0.740553C5.80364 0.168678 5.11458 -0.112572 4.44896 0.0421162ZM5.20364 0.974928C5.48021 1.14368 5.64896 1.57962 5.46614 1.64993C5.33489 1.70149 5.30677 1.68274 5.30677 1.54212C5.30677 1.44837 5.26458 1.36868 5.16146 1.2843C4.96927 1.12024 4.77239 1.12493 4.59896 1.29837L4.46302 1.4343V2.1468V2.8593L4.59896 2.99524C4.69739 3.09368 4.78177 3.13118 4.89896 3.13118C5.10521 3.13118 5.30677 2.94368 5.30677 2.7468C5.30677 2.62493 5.41458 2.51711 5.47552 2.58274C5.50364 2.61086 4.90833 14.0296 4.85208 14.5687C4.83333 14.7749 4.70677 12.7031 4.46302 8.19368C4.22864 3.86243 4.11614 1.46712 4.14427 1.37337C4.19114 1.2093 4.25208 1.12493 4.43489 0.984303C4.61302 0.848366 4.98333 0.843678 5.20364 0.974928ZM13.7396 19.1952C14.124 19.964 14.3302 20.8312 14.2927 21.5296C14.2552 22.2609 14.0443 22.6687 13.5521 22.9359C13.3365 23.0531 13.2333 23.0765 12.8771 23.0906C12.3474 23.114 12.0052 23.0015 11.6771 22.6921C11.3677 22.4015 11.2411 22.0968 11.2411 21.6234C11.2318 20.5499 12.1083 19.4437 13.3083 18.9984C13.5755 18.8999 13.5943 18.9093 13.7396 19.1952Z" fill="#706B4D"/>
</g>
<defs>
<filter id="filter0_d_200_96" x="0" y="0.00012207" width="33.3994" height="32.9838" filterUnits="userSpaceOnUse" color-interpolation-filters="sRGB">
<feFlood flood-opacity="0" result="BackgroundImageFix"/>
<feColorMatrix in="SourceAlpha" type="matrix" values="0 0 0 0 0 0 0 0 0 0 0 0 0 0 0 0 0 0 127 0" result="hardAlpha"/>
<feOffset dx="8" dy="5"/>
<feGaussianBlur stdDeviation="2"/>
<feComposite in2="hardAlpha" operator="out"/>
<feColorMatrix type="matrix" values="0 0 0 0 0 0 0 0 0 0 0 0 0 0 0 0 0 0 0.25 0"/>
<feBlend mode="normal" in2="BackgroundImageFix" result="effect1_dropShadow_200_96"/>
<feBlend mode="normal" in="SourceGraphic" in2="effect1_dropShadow_200_96" result="shape"/>
</filter>
</defs>
</svg>
