<svg width="30" height="30" viewBox="0 0 30 30" fill="none" xmlns="http://www.w3.org/2000/svg">
<g clip-path="url(#clip0_291_3)">
<path d="M13.8862 0.0407939C11.7124 0.245872 10.0601 0.708763 8.25537 1.61697C5.87646 2.80642 3.67334 4.8279 2.22607 7.14821C1.17725 8.824 0.415527 10.9861 0.10498 13.1541C0.0053711 13.8455 0.0053711 16.1541 0.10498 16.8455C0.351074 18.574 0.808105 20.0857 1.52295 21.533C2.32568 23.1736 3.1167 24.2752 4.41748 25.5818C5.7124 26.8709 6.83154 27.6736 8.40771 28.447C9.50928 28.9861 10.2183 29.2498 11.3374 29.531C14.2671 30.2693 17.2085 30.1287 20.0679 29.115C20.9468 28.8045 22.4585 28.0427 23.2319 27.5271C26.5132 25.3357 28.8101 22.0076 29.6479 18.2224C29.8413 17.3435 29.9409 16.5174 29.9819 15.4978C30.0698 13.0017 29.5542 10.6228 28.4409 8.38454C27.7144 6.9197 26.8999 5.7654 25.7573 4.58767C24.5034 3.28689 23.2378 2.36697 21.5913 1.55251C19.8569 0.697044 18.2397 0.234153 16.3179 0.058372C15.7202 0.00563765 14.3667 -0.0060811 13.8862 0.0407939ZM17.0796 2.0447C20.7593 2.66579 23.8647 4.6697 25.9331 7.76931C26.9819 9.33376 27.6675 11.1267 27.9897 13.0955C28.1304 13.992 28.1304 16.0076 27.9897 16.9041C27.3569 20.8181 25.2124 24.0642 21.8843 26.1619C20.4604 27.0584 18.7378 27.6912 16.9038 27.99C16.0015 28.1306 13.9917 28.1306 13.0952 27.9842C9.2456 27.3572 6.07568 25.3123 3.97217 22.0896C2.98779 20.5838 2.32568 18.826 2.00928 16.9041C1.86865 16.0076 1.86865 13.992 2.00928 13.0955C2.48389 10.1834 3.71436 7.75173 5.73584 5.74197C7.97412 3.50954 10.7866 2.19704 13.9448 1.90993C14.5776 1.85134 16.394 1.93337 17.0796 2.0447Z" fill="#706B4D"/>
<path d="M14.1787 7.53516C12.4326 7.75781 10.9502 8.48438 9.71973 9.7207C8.61816 10.8281 7.96777 12.0176 7.63965 13.5352C7.4873 14.2324 7.4873 15.7676 7.63965 16.4648C7.96191 17.9707 8.62988 19.1953 9.71973 20.2793C10.8037 21.3691 12.0283 22.0371 13.5342 22.3594C14.2314 22.5117 15.7666 22.5117 16.4639 22.3594C17.8174 22.0664 19.0713 21.4395 19.9619 20.6016L20.3369 20.2559L19.6807 19.5938L19.0244 18.9316L18.708 19.2246C17.7646 20.0801 16.3232 20.625 14.999 20.625C12.7432 20.625 10.6221 19.1953 9.79004 17.1035C9.47949 16.3301 9.40918 15.9375 9.40918 15C9.40918 14.0625 9.47949 13.6699 9.79004 12.8965C10.3115 11.584 11.4775 10.3887 12.7783 9.83789C14.7705 8.98828 17.167 9.36914 18.708 10.7754L19.0244 11.0684L19.6807 10.4062L20.3369 9.74414L19.9619 9.39844C19.0889 8.57812 17.8877 7.96875 16.5811 7.66992C16.0947 7.55859 14.6416 7.47656 14.1787 7.53516Z" fill="#706B4D"/>
</g>
<defs>
<clipPath id="clip0_291_3">
<rect width="30" height="30" fill="white"/>
</clipPath>
</defs>
</svg>
