<svg width="30" height="30" viewBox="0 0 30 30" fill="none" xmlns="http://www.w3.org/2000/svg">
<g clip-path="url(#clip0_291_10)">
<path d="M15 30C23.2842 30 30 23.2842 30 15C30 6.71575 23.2842 0 15 0C6.71575 0 0 6.71575 0 15C0 23.2842 6.71575 30 15 30Z" fill="url(#paint0_linear_291_10)"/>
<path d="M5.58603 15.734C7.33951 14.7681 9.29689 13.962 11.1258 13.1517C14.2721 11.8246 17.431 10.5205 20.6218 9.30635C21.2426 9.09947 22.358 8.89716 22.4674 9.81716C22.4075 11.1194 22.1611 12.414 21.9921 13.7087C21.5632 16.5557 21.0675 19.3929 20.584 22.2305C20.4175 23.1757 19.2334 23.665 18.4758 23.0602C16.655 21.8303 14.8203 20.6124 13.0228 19.354C12.4339 18.7557 12.9799 17.8965 13.5058 17.4693C15.0054 15.9914 16.5958 14.7358 18.0171 13.1815C18.4004 12.2557 17.2677 13.036 16.8941 13.275C14.8411 14.6898 12.8383 16.1909 10.6738 17.4343C9.5682 18.0429 8.27958 17.5228 7.17445 17.1832C6.18356 16.7729 4.73165 16.3595 5.58603 15.734Z" fill="white"/>
</g>
<defs>
<linearGradient id="paint0_linear_291_10" x1="11.2517" y1="1.251" x2="3.75175" y2="18.75" gradientUnits="userSpaceOnUse">
<stop stop-color="#37AEE2"/>
<stop offset="1" stop-color="#1E96C8"/>
</linearGradient>
<clipPath id="clip0_291_10">
<rect width="30" height="30" fill="white"/>
</clipPath>
</defs>
</svg>
