<svg width="30" height="30" viewBox="0 0 30 30" fill="none" xmlns="http://www.w3.org/2000/svg">
<g clip-path="url(#clip0_291_19)">
<path fill-rule="evenodd" clip-rule="evenodd" d="M16.7344 10.4916C17.3184 10.616 17.7661 10.838 18.1486 11.1961C18.6408 11.6609 18.9105 12.2234 19.0291 13.0315C19.1093 13.5584 19.0765 13.7655 18.8897 13.9373C18.7148 14.0972 18.3916 14.103 18.1959 13.9521C18.0537 13.8455 18.0091 13.733 17.9766 13.428C17.9381 13.0223 17.8669 12.7383 17.7452 12.4748C17.4844 11.9154 17.0248 11.6252 16.248 11.5305C15.8834 11.486 15.7737 11.4448 15.6551 11.3055C15.4385 11.048 15.5217 10.6305 15.821 10.4766C15.9337 10.4203 15.9811 10.4145 16.2302 10.4292C16.3847 10.4381 16.613 10.4648 16.7344 10.4916ZM16.103 8.25633C17.9027 8.51977 19.2961 9.35461 20.2095 10.7105C20.7225 11.4743 21.0427 12.3712 21.1523 13.3334C21.1908 13.6856 21.1908 14.328 21.1493 14.4347C21.1106 14.5352 20.9862 14.6714 20.8795 14.7277C20.764 14.787 20.5179 14.7809 20.3815 14.7098C20.1532 14.5943 20.085 14.4108 20.085 13.9134C20.085 13.1468 19.8862 12.3384 19.5424 11.7108C19.151 10.9943 18.5817 10.4023 17.888 9.9907C17.292 9.63539 16.4114 9.37195 15.608 9.3068C15.3173 9.28312 15.1573 9.22383 15.0476 9.09656C14.8786 8.90414 14.8608 8.64352 15.003 8.42742C15.157 8.18836 15.3942 8.14969 16.103 8.25633ZM9.12047 6.42984C9.2243 6.46547 9.38437 6.5482 9.47625 6.6075C10.0395 6.98062 11.6079 8.98477 12.1209 9.98531C12.4144 10.5567 12.5123 10.98 12.4205 11.2938C12.3255 11.6313 12.1685 11.809 11.4656 12.3743C11.1839 12.6021 10.92 12.836 10.8785 12.8984C10.7719 13.0523 10.6859 13.3542 10.6859 13.5675C10.6889 14.0618 11.0091 14.959 11.43 15.6487C11.756 16.1845 12.3401 16.8713 12.9183 17.3984C13.5973 18.0202 14.1961 18.4434 14.8723 18.7779C15.7411 19.2101 16.2717 19.3195 16.6601 19.1391C16.7578 19.0945 16.8616 19.0355 16.8942 19.0087C16.9238 18.982 17.1523 18.7038 17.4012 18.3959C17.8814 17.7919 17.9911 17.6941 18.3204 17.5816C18.7385 17.4396 19.1653 17.478 19.5954 17.6972C19.9216 17.8659 20.6332 18.307 21.0926 18.6267C21.6975 19.05 22.9901 20.104 23.1652 20.3142C23.4734 20.6932 23.5268 21.1786 23.3194 21.7146C23.1 22.2799 22.2462 23.3398 21.6502 23.7928C21.1106 24.2013 20.7281 24.3581 20.224 24.3818C19.8089 24.4024 19.6369 24.367 19.1062 24.1479C14.9437 22.4339 11.6201 19.8762 8.98125 16.362C7.60266 14.5266 6.55289 12.623 5.83547 10.6484C5.41734 9.49687 5.39672 8.99648 5.74055 8.40727C5.88891 8.15859 6.52031 7.54289 6.97992 7.19953C7.74492 6.63117 8.09766 6.42094 8.37937 6.36164C8.57203 6.32016 8.90719 6.35273 9.12047 6.42984ZM15.8984 6.11016C16.9184 6.23742 17.7424 6.48305 18.6469 6.92438C19.5363 7.35961 20.1056 7.77117 20.8587 8.52C21.5644 9.22758 21.9558 9.76336 22.3709 10.5952C22.9491 11.7555 23.2781 13.1353 23.3344 14.6538C23.3552 15.1718 23.3402 15.2873 23.2216 15.4355C22.9964 15.7226 22.5012 15.6752 22.3322 15.3525C22.2787 15.2459 22.264 15.1542 22.2462 14.7396C22.2164 14.103 22.1721 13.6917 22.083 13.2002C21.7331 11.273 20.808 9.73359 19.3315 8.62922C18.101 7.70555 16.8291 7.25555 15.1629 7.15781C14.5995 7.12523 14.5017 7.10461 14.3742 7.00687C14.137 6.82031 14.1251 6.38227 14.3534 6.17789C14.4928 6.05062 14.5905 6.03281 15.0738 6.04758C15.3263 6.05672 15.6968 6.08648 15.8984 6.11016ZM15 0C23.2842 0 30 6.71578 30 15C30 23.2842 23.2842 30 15 30C6.71578 30 0 23.2842 0 15C0 6.71578 6.71578 0 15 0Z" fill="#7F4DA0"/>
</g>
<defs>
<clipPath id="clip0_291_19">
<rect width="30" height="30" fill="white"/>
</clipPath>
</defs>
</svg>
