<svg width="30" height="30" viewBox="0 0 30 30" fill="none" xmlns="http://www.w3.org/2000/svg">
<path d="M15.0003 1.15186C7.35214 1.15186 1.15234 7.35166 1.15234 14.9999C1.15234 22.6481 7.35214 28.8479 15.0003 28.8479C22.6485 28.8479 28.8483 22.6481 28.8483 14.9999C28.8483 7.35166 22.6485 1.15186 15.0003 1.15186ZM22.4427 20.255C21.8517 20.6246 19.4502 20.7347 18.8688 20.3123C18.5499 20.0807 18.2583 19.7909 17.9814 19.5149C17.7876 19.322 17.5677 19.2284 17.4012 19.019C17.2653 18.8477 17.172 18.6455 17.0289 18.4763C16.7874 18.1925 16.4157 17.951 16.1217 18.2978C15.6789 18.8195 16.1913 19.844 15.6009 20.2337C15.4029 20.3645 15.2031 20.4023 14.9556 20.3837L14.4075 20.4086C14.0856 20.4149 13.5756 20.4179 13.2093 20.3519C12.8007 20.2781 12.4632 20.0549 12.0936 19.8911C11.3922 19.58 10.7241 19.1561 10.2156 18.569C8.83174 16.97 6.97294 14.771 6.25084 12.7607C6.10234 12.3476 5.70994 11.5295 6.08194 11.1752C6.58774 10.8077 9.07024 10.7042 9.45754 11.2724C9.61474 11.5034 9.71404 11.8412 9.82534 12.1031C9.96394 12.4295 10.0389 12.737 10.2555 13.0259C10.4472 13.2821 10.5885 13.5398 10.7367 13.8206C10.9032 14.1359 11.0604 14.4383 11.2629 14.7284C11.4003 14.9258 11.7636 15.3185 11.9931 15.3476C12.5535 15.4193 12.5187 14.0576 12.477 13.7252C12.4371 13.4048 12.4269 13.0649 12.4374 12.74C12.4464 12.4628 12.4713 12.0722 12.3072 11.846C12.0396 11.477 11.4435 11.753 11.397 11.2571C11.4954 11.1164 11.4747 10.9916 12.132 10.775C12.6498 10.6049 12.9843 10.6103 13.3257 10.6376C14.0217 10.6934 14.7597 10.505 15.4317 10.7306C16.0737 10.9469 15.9744 11.8592 15.9528 12.4058C15.9237 13.1519 15.9549 13.8803 15.9528 14.6378C15.9519 14.9825 15.9381 15.3182 16.3587 15.29C16.7529 15.2639 16.7931 14.9321 16.9812 14.6585C17.2428 14.2769 17.4831 13.8899 17.7495 13.5098C18.1086 12.9959 18.2172 12.4184 18.5553 11.8919C18.6762 11.7038 18.7803 11.303 18.9666 11.1542C19.1076 11.0411 19.3755 11.1002 19.5462 11.1002H19.9521C20.2626 11.1002 20.5794 11.0978 20.8986 11.1089C21.3582 11.1248 21.873 11.0192 22.3287 11.0837C24.2952 11.3612 19.857 15.5651 20.088 16.3157C20.2476 16.8341 21.2601 17.4134 21.6255 17.8379C22.1106 18.4034 23.604 19.5275 22.4427 20.255Z" fill="#4C75A3"/>
</svg>
