<svg width="30" height="30" viewBox="0 0 30 30" fill="none" xmlns="http://www.w3.org/2000/svg">
<g clip-path="url(#clip0_291_13)">
<path d="M15 30C23.2843 30 30 23.2843 30 15C30 6.71573 23.2843 0 15 0C6.71573 0 0 6.71573 0 15C0 23.2843 6.71573 30 15 30Z" fill="#6EBF3A"/>
<path d="M21.8796 8.26482C20.1977 6.58236 17.9619 5.65555 15.5806 5.65479C10.6735 5.65479 6.67963 9.64713 6.67715 14.5545C6.67715 16.1239 7.08722 17.6539 7.86501 19.003L6.60254 23.6157L11.3219 22.3773C12.6229 23.0872 14.0865 23.4614 15.578 23.4614H15.5806C20.4866 23.4614 24.4816 19.469 24.4841 14.5611C24.4843 12.1826 23.5602 9.94671 21.8796 8.26482ZM15.5806 21.959H15.578C14.2502 21.9577 12.9479 21.6009 11.8119 20.9271L11.5402 20.7658L8.74106 21.5011L9.48812 18.771L9.31104 18.4915C8.57066 17.3141 8.1791 15.9518 8.18043 14.5543C8.18177 10.4755 11.5017 7.15673 15.5831 7.15673C17.5592 7.15807 19.4184 7.92841 20.8154 9.32674C22.2122 10.7251 22.982 12.5833 22.9806 14.5602C22.9795 18.6407 19.6596 21.959 15.5806 21.959ZM19.6398 16.418C19.4173 16.3075 18.3239 15.7696 18.1203 15.695C17.9167 15.6204 17.7672 15.583 17.6195 15.8055C17.4719 16.0278 17.0456 16.5285 16.9152 16.6777C16.7845 16.8267 16.6555 16.8454 16.4332 16.7336C16.2107 16.6216 15.493 16.3875 14.6433 15.6297C13.9829 15.0397 13.5354 14.3113 13.4076 14.0889C13.2771 13.8658 13.3929 13.7459 13.5034 13.6347C13.6047 13.5355 13.727 13.375 13.8377 13.2452C13.9482 13.1153 13.9854 13.0227 14.0602 12.8743C14.1348 12.7258 14.0974 12.5961 14.0415 12.4848C13.9856 12.373 13.5408 11.2783 13.3557 10.8335C13.1759 10.3993 12.9922 10.4579 12.855 10.4512C12.7258 10.4453 12.5767 10.444 12.4289 10.444C12.2812 10.444 12.0388 10.4993 11.8364 10.7222C11.6312 10.9447 11.0572 11.4826 11.0572 12.5772C11.0572 13.6717 11.8549 14.7291 11.9655 14.8777C12.076 15.0262 13.5343 17.2714 15.7648 18.2356C16.2962 18.4646 16.7103 18.6018 17.0339 18.7042C17.5665 18.8735 18.0525 18.8494 18.4363 18.7922C18.8622 18.7283 19.752 18.2543 19.9369 17.7349C20.1222 17.2154 20.1222 16.7706 20.0661 16.6775C20.0098 16.5844 19.8634 16.5285 19.6398 16.418Z" fill="white"/>
</g>
<defs>
<clipPath id="clip0_291_13">
<rect width="30" height="30" fill="white"/>
</clipPath>
</defs>
</svg>
